<?xml version="1.0" encoding="utf-8"?>
<!-- Generator: Adobe Illustrator 21.1.0, SVG Export Plug-In . SVG Version: 6.00 Build 0)  -->
<svg version="1.1"
	 id="Layer_1" xmlns:cc="http://creativecommons.org/ns#" xmlns:dc="http://purl.org/dc/elements/1.1/" xmlns:inkscape="http://www.inkscape.org/namespaces/inkscape" xmlns:rdf="http://www.w3.org/1999/02/22-rdf-syntax-ns#" xmlns:sodipodi="http://sodipodi.sourceforge.net/DTD/sodipodi-0.dtd" xmlns:svg="http://www.w3.org/2000/svg"
	 xmlns="http://www.w3.org/2000/svg" xmlns:xlink="http://www.w3.org/1999/xlink" x="0px" y="0px" viewBox="0 0 82 82"
	 style="enable-background:new 0 0 82 82;" xml:space="preserve">
<g transform="translate(0,-952.36218)">
	<g transform="translate(8.9950798,961.32626)">
		<path d="M25-9C6.3-9-9,6.3-9,25S6.3,59,25,59c7.2,0,13.9-2.3,19.3-6.1l18.4,18.4c2.3,2.4,6.2,2.4,8.5,0c2.3-2.3,2.3-6.1,0-8.5
			L52.9,44.4C56.7,38.9,59,32.2,59,25C59,6.3,43.7-9,25-9z M25,3c12.2,0,22,9.8,22,22s-9.8,22-22,22C12.8,47,3,37.2,3,25
			S12.8,3,25,3z"/>
	</g>
</g>
</svg>
